# xmcd
#
# Track frame offsets: 
#        183
#        10083
#        29333
#        48220
#        67363
#        92413
#        115483
#        134070
#        151153
#        170520
#        187038
#        204243
#        226053
#        243798
#        260715
#        290608
#        307583
#        325865
#
# Disc length: 4560 seconds
#
# Revision: 3
# Processed by: cddbd v1.5.2PL0 Copyright (c) Steve Scherf et al.
# Submitted via: ExactAudioCopy v0.99pb4
#
DISCID=f411ce12
DTITLE=MC Hammer - The Funky Headhunter
DYEAR=1994
DGENRE=Hip-Hop
TTITLE0=Intro
TTITLE1=Oaktown
TTITLE2=It's All Good
TTITLE3=Something For The O.G.'s
TTITLE4=Don't Stop
TTITLE5=Pumps And A Bump
TTITLE6=One Mo' Time
TTITLE7=Clap Yo Hands
TTITLE8=Break 'Em Off Somethin' Propa
TTITLE9=Don't Fight The Feelin'
TTITLE10=Goldie In Me
TTITLE11=Sleepin On A Master Plan
TTITLE12=It's All That
TTITLE13=The Funky Headhunter
TTITLE14=Pumps And A Bump Reprize (Bump Teddy Bump)
TTITLE15=Help Lord (Won't You Come)
TTITLE16=Do It Like This
TTITLE17=Heartbreaka (Is What They Call Me)
EXTD=
EXTT0=
EXTT1=
EXTT2=
EXTT3=
EXTT4=
EXTT5=
EXTT6=
EXTT7=
EXTT8=
EXTT9=
EXTT10=
EXTT11=
EXTT12=
EXTT13=
EXTT14=
EXTT15=
EXTT16=
EXTT17=
PLAYORDER=
